solid ASCII
  facet normal -1.000000e+00 -2.599547e-16 0.000000e+00
    outer loop
      vertex   -1.050000e+02 8.200000e+01 1.000000e+00
      vertex   -1.050000e+02 -8.200000e+01 1.000000e+00
      vertex   -1.050000e+02 8.200000e+01 2.000000e+00
    endloop
  endfacet
  facet normal -1.000000e+00 -2.599547e-16 0.000000e+00
    outer loop
      vertex   -1.050000e+02 8.200000e+01 2.000000e+00
      vertex   -1.050000e+02 -8.200000e+01 1.000000e+00
      vertex   -1.050000e+02 -8.200000e+01 2.000000e+00
    endloop
  endfacet
  facet normal 0.000000e+00 1.000000e+00 0.000000e+00
    outer loop
      vertex   1.050000e+02 8.200000e+01 1.000000e+00
      vertex   -1.050000e+02 8.200000e+01 1.000000e+00
      vertex   1.050000e+02 8.200000e+01 2.000000e+00
    endloop
  endfacet
  facet normal 0.000000e+00 1.000000e+00 0.000000e+00
    outer loop
      vertex   1.050000e+02 8.200000e+01 2.000000e+00
      vertex   -1.050000e+02 8.200000e+01 1.000000e+00
      vertex   -1.050000e+02 8.200000e+01 2.000000e+00
    endloop
  endfacet
  facet normal 1.000000e+00 3.466062e-16 1.421085e-14
    outer loop
      vertex   1.050000e+02 -8.200000e+01 1.000000e+00
      vertex   1.050000e+02 8.200000e+01 1.000000e+00
      vertex   1.050000e+02 -8.200000e+01 2.000000e+00
    endloop
  endfacet
  facet normal 1.000000e+00 4.332578e-16 2.842171e-14
    outer loop
      vertex   1.050000e+02 -8.200000e+01 2.000000e+00
      vertex   1.050000e+02 8.200000e+01 1.000000e+00
      vertex   1.050000e+02 8.200000e+01 2.000000e+00
    endloop
  endfacet
  facet normal 0.000000e+00 -1.000000e+00 0.000000e+00
    outer loop
      vertex   -1.050000e+02 -8.200000e+01 1.000000e+00
      vertex   1.050000e+02 -8.200000e+01 1.000000e+00
      vertex   -1.050000e+02 -8.200000e+01 2.000000e+00
    endloop
  endfacet
  facet normal 0.000000e+00 -1.000000e+00 0.000000e+00
    outer loop
      vertex   -1.050000e+02 -8.200000e+01 2.000000e+00
      vertex   1.050000e+02 -8.200000e+01 1.000000e+00
      vertex   1.050000e+02 -8.200000e+01 2.000000e+00
    endloop
  endfacet
  facet normal 0.000000e+00 -0.000000e+00 1.000000e+00
    outer loop
      vertex   -1.050000e+02 -8.200000e+01 2.000000e+00
      vertex   1.050000e+02 -8.200000e+01 2.000000e+00
      vertex   -1.050000e+02 8.200000e+01 2.000000e+00
    endloop
  endfacet
  facet normal -0.000000e+00 0.000000e+00 1.000000e+00
    outer loop
      vertex   -1.050000e+02 8.200000e+01 2.000000e+00
      vertex   1.050000e+02 -8.200000e+01 2.000000e+00
      vertex   1.050000e+02 8.200000e+01 2.000000e+00
    endloop
  endfacet
  facet normal 0.000000e+00 0.000000e+00 -1.000000e+00
    outer loop
      vertex   1.050000e+02 -8.200000e+01 1.000000e+00
      vertex   -1.050000e+02 -8.200000e+01 1.000000e+00
      vertex   1.050000e+02 8.200000e+01 1.000000e+00
    endloop
  endfacet
  facet normal -0.000000e+00 0.000000e+00 -1.000000e+00
    outer loop
      vertex   1.050000e+02 8.200000e+01 1.000000e+00
      vertex   -1.050000e+02 -8.200000e+01 1.000000e+00
      vertex   -1.050000e+02 8.200000e+01 1.000000e+00
    endloop
  endfacet
endsolid
