solid ASCII
  facet normal 1.000000e+00 2.672888e-16 4.736952e-15
    outer loop
      vertex   5.144000e+01 -8.550000e+01 -1.410000e+01
      vertex   5.144000e+01 -3.233333e+01 -1.410000e+01
      vertex   5.144000e+01 -8.550000e+01 -1.260000e+01
    endloop
  endfacet
  facet normal 1.000000e+00 1.336444e-16 0.000000e+00
    outer loop
      vertex   5.144000e+01 -8.550000e+01 -1.260000e+01
      vertex   5.144000e+01 -3.233333e+01 -1.410000e+01
      vertex   5.144000e+01 -3.233333e+01 -1.260000e+01
    endloop
  endfacet
  facet normal 0.000000e+00 -1.000000e+00 0.000000e+00
    outer loop
      vertex   5.144000e+01 -3.233333e+01 -1.410000e+01
      vertex   9.444000e+01 -3.233333e+01 -1.410000e+01
      vertex   5.144000e+01 -3.233333e+01 -1.260000e+01
    endloop
  endfacet
  facet normal 0.000000e+00 -1.000000e+00 0.000000e+00
    outer loop
      vertex   5.144000e+01 -3.233333e+01 -1.260000e+01
      vertex   9.444000e+01 -3.233333e+01 -1.410000e+01
      vertex   9.444000e+01 -3.233333e+01 -1.260000e+01
    endloop
  endfacet
  facet normal 0.000000e+00 0.000000e+00 -1.000000e+00
    outer loop
      vertex   9.444000e+01 -3.233333e+01 -1.410000e+01
      vertex   5.144000e+01 -3.233333e+01 -1.410000e+01
      vertex   9.444000e+01 -8.000000e+00 -1.410000e+01
    endloop
  endfacet
  facet normal -0.000000e+00 0.000000e+00 -1.000000e+00
    outer loop
      vertex   9.444000e+01 -8.000000e+00 -1.410000e+01
      vertex   5.144000e+01 -3.233333e+01 -1.410000e+01
      vertex   -9.444000e+01 -8.000000e+00 -1.410000e+01
    endloop
  endfacet
  facet normal 0.000000e+00 0.000000e+00 -1.000000e+00
    outer loop
      vertex   -9.444000e+01 -8.000000e+00 -1.410000e+01
      vertex   5.144000e+01 -3.233333e+01 -1.410000e+01
      vertex   -3.514667e+01 -7.450000e+01 -1.410000e+01
    endloop
  endfacet
  facet normal 0.000000e+00 0.000000e+00 -1.000000e+00
    outer loop
      vertex   -9.444000e+01 -8.000000e+00 -1.410000e+01
      vertex   -3.514667e+01 -7.450000e+01 -1.410000e+01
      vertex   -9.444000e+01 -7.550000e+01 -1.410000e+01
    endloop
  endfacet
  facet normal 0.000000e+00 0.000000e+00 -1.000000e+00
    outer loop
      vertex   -9.444000e+01 -7.550000e+01 -1.410000e+01
      vertex   -3.514667e+01 -7.450000e+01 -1.410000e+01
      vertex   -8.444000e+01 -8.550000e+01 -1.410000e+01
    endloop
  endfacet
  facet normal 0.000000e+00 0.000000e+00 -1.000000e+00
    outer loop
      vertex   -8.444000e+01 -8.550000e+01 -1.410000e+01
      vertex   -3.514667e+01 -7.450000e+01 -1.410000e+01
      vertex   -3.514667e+01 -8.550000e+01 -1.410000e+01
    endloop
  endfacet
  facet normal 0.000000e+00 0.000000e+00 -1.000000e+00
    outer loop
      vertex   5.144000e+01 -8.550000e+01 -1.410000e+01
      vertex   3.514667e+01 -7.450000e+01 -1.410000e+01
      vertex   5.144000e+01 -3.233333e+01 -1.410000e+01
    endloop
  endfacet
  facet normal 0.000000e+00 0.000000e+00 -1.000000e+00
    outer loop
      vertex   5.144000e+01 -3.233333e+01 -1.410000e+01
      vertex   3.514667e+01 -7.450000e+01 -1.410000e+01
      vertex   1.914667e+01 -7.450000e+01 -1.410000e+01
    endloop
  endfacet
  facet normal 0.000000e+00 0.000000e+00 -1.000000e+00
    outer loop
      vertex   5.144000e+01 -3.233333e+01 -1.410000e+01
      vertex   1.914667e+01 -7.450000e+01 -1.410000e+01
      vertex   -1.914667e+01 -7.450000e+01 -1.410000e+01
    endloop
  endfacet
  facet normal 0.000000e+00 0.000000e+00 -1.000000e+00
    outer loop
      vertex   -1.914667e+01 -7.450000e+01 -1.410000e+01
      vertex   1.914667e+01 -7.450000e+01 -1.410000e+01
      vertex   -1.914667e+01 -8.550000e+01 -1.410000e+01
    endloop
  endfacet
  facet normal 0.000000e+00 0.000000e+00 -1.000000e+00
    outer loop
      vertex   -1.914667e+01 -8.550000e+01 -1.410000e+01
      vertex   1.914667e+01 -7.450000e+01 -1.410000e+01
      vertex   1.914667e+01 -8.550000e+01 -1.410000e+01
    endloop
  endfacet
  facet normal 0.000000e+00 0.000000e+00 -1.000000e+00
    outer loop
      vertex   5.144000e+01 -8.550000e+01 -1.410000e+01
      vertex   3.514667e+01 -8.550000e+01 -1.410000e+01
      vertex   3.514667e+01 -7.450000e+01 -1.410000e+01
    endloop
  endfacet
  facet normal 0.000000e+00 0.000000e+00 -1.000000e+00
    outer loop
      vertex   -1.914667e+01 -7.450000e+01 -1.410000e+01
      vertex   -3.514667e+01 -7.450000e+01 -1.410000e+01
      vertex   5.144000e+01 -3.233333e+01 -1.410000e+01
    endloop
  endfacet
  facet normal 8.721883e-16 -1.000000e+00 4.131514e-30
    outer loop
      vertex   5.144000e+01 -8.550000e+01 -1.260000e+01
      vertex   3.514667e+01 -8.550000e+01 -1.260000e+01
      vertex   5.144000e+01 -8.550000e+01 -1.410000e+01
    endloop
  endfacet
  facet normal -0.000000e+00 -1.000000e+00 -9.473903e-15
    outer loop
      vertex   5.144000e+01 -8.550000e+01 -1.410000e+01
      vertex   3.514667e+01 -8.550000e+01 -1.260000e+01
      vertex   3.514667e+01 -8.550000e+01 -1.410000e+01
    endloop
  endfacet
  facet normal 3.711052e-16 -1.000000e+00 0.000000e+00
    outer loop
      vertex   -1.914667e+01 -8.550000e+01 -1.410000e+01
      vertex   1.914667e+01 -8.550000e+01 -1.410000e+01
      vertex   -1.914667e+01 -8.550000e+01 -1.260000e+01
    endloop
  endfacet
  facet normal 0.000000e+00 -1.000000e+00 -9.473903e-15
    outer loop
      vertex   -1.914667e+01 -8.550000e+01 -1.260000e+01
      vertex   1.914667e+01 -8.550000e+01 -1.410000e+01
      vertex   1.914667e+01 -8.550000e+01 -1.260000e+01
    endloop
  endfacet
  facet normal -7.071068e-01 -7.071068e-01 0.000000e+00
    outer loop
      vertex   -9.444000e+01 -7.550000e+01 -1.410000e+01
      vertex   -8.444000e+01 -8.550000e+01 -1.410000e+01
      vertex   -9.444000e+01 -7.550000e+01 -1.260000e+01
    endloop
  endfacet
  facet normal -7.071068e-01 -7.071068e-01 0.000000e+00
    outer loop
      vertex   -9.444000e+01 -7.550000e+01 -1.260000e+01
      vertex   -8.444000e+01 -8.550000e+01 -1.410000e+01
      vertex   -8.444000e+01 -8.550000e+01 -1.260000e+01
    endloop
  endfacet
  facet normal 0.000000e+00 -0.000000e+00 1.000000e+00
    outer loop
      vertex   9.444000e+01 -3.233333e+01 -1.260000e+01
      vertex   9.444000e+01 -8.000000e+00 -1.260000e+01
      vertex   5.144000e+01 -3.233333e+01 -1.260000e+01
    endloop
  endfacet
  facet normal 0.000000e+00 -0.000000e+00 1.000000e+00
    outer loop
      vertex   5.144000e+01 -3.233333e+01 -1.260000e+01
      vertex   9.444000e+01 -8.000000e+00 -1.260000e+01
      vertex   -9.444000e+01 -8.000000e+00 -1.260000e+01
    endloop
  endfacet
  facet normal 0.000000e+00 0.000000e+00 1.000000e+00
    outer loop
      vertex   5.144000e+01 -3.233333e+01 -1.260000e+01
      vertex   -9.444000e+01 -8.000000e+00 -1.260000e+01
      vertex   -3.514667e+01 -7.450000e+01 -1.260000e+01
    endloop
  endfacet
  facet normal 0.000000e+00 0.000000e+00 1.000000e+00
    outer loop
      vertex   -3.514667e+01 -7.450000e+01 -1.260000e+01
      vertex   -9.444000e+01 -8.000000e+00 -1.260000e+01
      vertex   -9.444000e+01 -7.550000e+01 -1.260000e+01
    endloop
  endfacet
  facet normal 0.000000e+00 0.000000e+00 1.000000e+00
    outer loop
      vertex   -3.514667e+01 -7.450000e+01 -1.260000e+01
      vertex   -9.444000e+01 -7.550000e+01 -1.260000e+01
      vertex   -8.444000e+01 -8.550000e+01 -1.260000e+01
    endloop
  endfacet
  facet normal 0.000000e+00 0.000000e+00 1.000000e+00
    outer loop
      vertex   -8.444000e+01 -8.550000e+01 -1.260000e+01
      vertex   -3.514667e+01 -8.550000e+01 -1.260000e+01
      vertex   -3.514667e+01 -7.450000e+01 -1.260000e+01
    endloop
  endfacet
  facet normal 0.000000e+00 0.000000e+00 1.000000e+00
    outer loop
      vertex   -3.514667e+01 -7.450000e+01 -1.260000e+01
      vertex   -1.914667e+01 -7.450000e+01 -1.260000e+01
      vertex   5.144000e+01 -3.233333e+01 -1.260000e+01
    endloop
  endfacet
  facet normal 0.000000e+00 0.000000e+00 1.000000e+00
    outer loop
      vertex   5.144000e+01 -3.233333e+01 -1.260000e+01
      vertex   -1.914667e+01 -7.450000e+01 -1.260000e+01
      vertex   1.914667e+01 -7.450000e+01 -1.260000e+01
    endloop
  endfacet
  facet normal 0.000000e+00 0.000000e+00 1.000000e+00
    outer loop
      vertex   5.144000e+01 -3.233333e+01 -1.260000e+01
      vertex   1.914667e+01 -7.450000e+01 -1.260000e+01
      vertex   3.514667e+01 -7.450000e+01 -1.260000e+01
    endloop
  endfacet
  facet normal 0.000000e+00 0.000000e+00 1.000000e+00
    outer loop
      vertex   -1.914667e+01 -8.550000e+01 -1.260000e+01
      vertex   1.914667e+01 -8.550000e+01 -1.260000e+01
      vertex   -1.914667e+01 -7.450000e+01 -1.260000e+01
    endloop
  endfacet
  facet normal -0.000000e+00 0.000000e+00 1.000000e+00
    outer loop
      vertex   -1.914667e+01 -7.450000e+01 -1.260000e+01
      vertex   1.914667e+01 -8.550000e+01 -1.260000e+01
      vertex   1.914667e+01 -7.450000e+01 -1.260000e+01
    endloop
  endfacet
  facet normal 0.000000e+00 0.000000e+00 1.000000e+00
    outer loop
      vertex   3.514667e+01 -8.550000e+01 -1.260000e+01
      vertex   5.144000e+01 -8.550000e+01 -1.260000e+01
      vertex   3.514667e+01 -7.450000e+01 -1.260000e+01
    endloop
  endfacet
  facet normal -0.000000e+00 0.000000e+00 1.000000e+00
    outer loop
      vertex   3.514667e+01 -7.450000e+01 -1.260000e+01
      vertex   5.144000e+01 -8.550000e+01 -1.260000e+01
      vertex   5.144000e+01 -3.233333e+01 -1.260000e+01
    endloop
  endfacet
  facet normal 1.000000e+00 0.000000e+00 0.000000e+00
    outer loop
      vertex   9.444000e+01 -3.233333e+01 -1.410000e+01
      vertex   9.444000e+01 -8.000000e+00 -1.410000e+01
      vertex   9.444000e+01 -3.233333e+01 -1.260000e+01
    endloop
  endfacet
  facet normal 1.000000e+00 -0.000000e+00 0.000000e+00
    outer loop
      vertex   9.444000e+01 -3.233333e+01 -1.260000e+01
      vertex   9.444000e+01 -8.000000e+00 -1.410000e+01
      vertex   9.444000e+01 -8.000000e+00 -1.260000e+01
    endloop
  endfacet
  facet normal -1.000000e+00 0.000000e+00 9.473903e-15
    outer loop
      vertex   -9.444000e+01 -8.000000e+00 -1.410000e+01
      vertex   -9.444000e+01 -7.550000e+01 -1.410000e+01
      vertex   -9.444000e+01 -8.000000e+00 -1.260000e+01
    endloop
  endfacet
  facet normal -1.000000e+00 2.105312e-16 0.000000e+00
    outer loop
      vertex   -9.444000e+01 -8.000000e+00 -1.260000e+01
      vertex   -9.444000e+01 -7.550000e+01 -1.410000e+01
      vertex   -9.444000e+01 -7.550000e+01 -1.260000e+01
    endloop
  endfacet
  facet normal 5.765832e-16 -1.000000e+00 0.000000e+00
    outer loop
      vertex   -3.514667e+01 -8.550000e+01 -1.260000e+01
      vertex   -8.444000e+01 -8.550000e+01 -1.260000e+01
      vertex   -3.514667e+01 -8.550000e+01 -1.410000e+01
    endloop
  endfacet
  facet normal 5.765832e-16 -1.000000e+00 0.000000e+00
    outer loop
      vertex   -3.514667e+01 -8.550000e+01 -1.410000e+01
      vertex   -8.444000e+01 -8.550000e+01 -1.260000e+01
      vertex   -8.444000e+01 -8.550000e+01 -1.410000e+01
    endloop
  endfacet
  facet normal -1.000000e+00 0.000000e+00 0.000000e+00
    outer loop
      vertex   -1.914667e+01 -7.450000e+01 -1.410000e+01
      vertex   -1.914667e+01 -8.550000e+01 -1.410000e+01
      vertex   -1.914667e+01 -7.450000e+01 -1.260000e+01
    endloop
  endfacet
  facet normal -1.000000e+00 -0.000000e+00 0.000000e+00
    outer loop
      vertex   -1.914667e+01 -7.450000e+01 -1.260000e+01
      vertex   -1.914667e+01 -8.550000e+01 -1.410000e+01
      vertex   -1.914667e+01 -8.550000e+01 -1.260000e+01
    endloop
  endfacet
  facet normal -1.000000e+00 0.000000e+00 0.000000e+00
    outer loop
      vertex   3.514667e+01 -7.450000e+01 -1.410000e+01
      vertex   3.514667e+01 -8.550000e+01 -1.410000e+01
      vertex   3.514667e+01 -7.450000e+01 -1.260000e+01
    endloop
  endfacet
  facet normal -1.000000e+00 -0.000000e+00 0.000000e+00
    outer loop
      vertex   3.514667e+01 -7.450000e+01 -1.260000e+01
      vertex   3.514667e+01 -8.550000e+01 -1.410000e+01
      vertex   3.514667e+01 -8.550000e+01 -1.260000e+01
    endloop
  endfacet
  facet normal 0.000000e+00 1.000000e+00 -2.368476e-14
    outer loop
      vertex   -9.444000e+01 -8.000000e+00 -1.260000e+01
      vertex   9.444000e+01 -8.000000e+00 -1.260000e+01
      vertex   -9.444000e+01 -8.000000e+00 -1.410000e+01
    endloop
  endfacet
  facet normal 0.000000e+00 1.000000e+00 -2.368476e-14
    outer loop
      vertex   -9.444000e+01 -8.000000e+00 -1.410000e+01
      vertex   9.444000e+01 -8.000000e+00 -1.260000e+01
      vertex   9.444000e+01 -8.000000e+00 -1.410000e+01
    endloop
  endfacet
  facet normal 1.000000e+00 0.000000e+00 -0.000000e+00
    outer loop
      vertex   1.914667e+01 -8.550000e+01 -1.410000e+01
      vertex   1.914667e+01 -7.450000e+01 -1.410000e+01
      vertex   1.914667e+01 -8.550000e+01 -1.260000e+01
    endloop
  endfacet
  facet normal 1.000000e+00 -0.000000e+00 0.000000e+00
    outer loop
      vertex   1.914667e+01 -8.550000e+01 -1.260000e+01
      vertex   1.914667e+01 -7.450000e+01 -1.410000e+01
      vertex   1.914667e+01 -7.450000e+01 -1.260000e+01
    endloop
  endfacet
  facet normal 0.000000e+00 -1.000000e+00 0.000000e+00
    outer loop
      vertex   1.914667e+01 -7.450000e+01 -1.410000e+01
      vertex   3.514667e+01 -7.450000e+01 -1.410000e+01
      vertex   1.914667e+01 -7.450000e+01 -1.260000e+01
    endloop
  endfacet
  facet normal 0.000000e+00 -1.000000e+00 0.000000e+00
    outer loop
      vertex   1.914667e+01 -7.450000e+01 -1.260000e+01
      vertex   3.514667e+01 -7.450000e+01 -1.410000e+01
      vertex   3.514667e+01 -7.450000e+01 -1.260000e+01
    endloop
  endfacet
  facet normal 1.000000e+00 0.000000e+00 0.000000e+00
    outer loop
      vertex   -3.514667e+01 -8.550000e+01 -1.410000e+01
      vertex   -3.514667e+01 -7.450000e+01 -1.410000e+01
      vertex   -3.514667e+01 -8.550000e+01 -1.260000e+01
    endloop
  endfacet
  facet normal 1.000000e+00 -0.000000e+00 0.000000e+00
    outer loop
      vertex   -3.514667e+01 -8.550000e+01 -1.260000e+01
      vertex   -3.514667e+01 -7.450000e+01 -1.410000e+01
      vertex   -3.514667e+01 -7.450000e+01 -1.260000e+01
    endloop
  endfacet
  facet normal 0.000000e+00 -1.000000e+00 0.000000e+00
    outer loop
      vertex   -3.514667e+01 -7.450000e+01 -1.410000e+01
      vertex   -1.914667e+01 -7.450000e+01 -1.410000e+01
      vertex   -3.514667e+01 -7.450000e+01 -1.260000e+01
    endloop
  endfacet
  facet normal 0.000000e+00 -1.000000e+00 0.000000e+00
    outer loop
      vertex   -3.514667e+01 -7.450000e+01 -1.260000e+01
      vertex   -1.914667e+01 -7.450000e+01 -1.410000e+01
      vertex   -1.914667e+01 -7.450000e+01 -1.260000e+01
    endloop
  endfacet
  facet normal 0.000000e+00 1.000000e+00 -0.000000e+00
    outer loop
      vertex   2.914667e+01 7.450000e+01 -1.410000e+01
      vertex   1.914667e+01 7.450000e+01 -1.410000e+01
      vertex   2.914667e+01 7.450000e+01 -1.260000e+01
    endloop
  endfacet
  facet normal 0.000000e+00 1.000000e+00 0.000000e+00
    outer loop
      vertex   2.914667e+01 7.450000e+01 -1.260000e+01
      vertex   1.914667e+01 7.450000e+01 -1.410000e+01
      vertex   1.914667e+01 7.450000e+01 -1.260000e+01
    endloop
  endfacet
  facet normal -1.000000e+00 -9.689219e-16 2.368476e-15
    outer loop
      vertex   2.914667e+01 8.550000e+01 -1.410000e+01
      vertex   2.914667e+01 7.450000e+01 -1.410000e+01
      vertex   2.914667e+01 8.550000e+01 -1.260000e+01
    endloop
  endfacet
  facet normal -1.000000e+00 -6.459479e-16 0.000000e+00
    outer loop
      vertex   2.914667e+01 8.550000e+01 -1.260000e+01
      vertex   2.914667e+01 7.450000e+01 -1.410000e+01
      vertex   2.914667e+01 7.450000e+01 -1.260000e+01
    endloop
  endfacet
  facet normal 1.000000e+00 0.000000e+00 0.000000e+00
    outer loop
      vertex   -2.914667e+01 8.550000e+01 -1.260000e+01
      vertex   -2.914667e+01 7.450000e+01 -1.260000e+01
      vertex   -2.914667e+01 8.550000e+01 -1.410000e+01
    endloop
  endfacet
  facet normal 1.000000e+00 0.000000e+00 0.000000e+00
    outer loop
      vertex   -2.914667e+01 8.550000e+01 -1.410000e+01
      vertex   -2.914667e+01 7.450000e+01 -1.260000e+01
      vertex   -2.914667e+01 7.450000e+01 -1.410000e+01
    endloop
  endfacet
  facet normal 3.573780e-15 -1.000000e+00 2.960595e-15
    outer loop
      vertex   -9.444000e+01 8.000000e+00 -1.410000e+01
      vertex   9.444000e+01 8.000000e+00 -1.410000e+01
      vertex   -9.444000e+01 8.000000e+00 -1.260000e+01
    endloop
  endfacet
  facet normal 3.550268e-15 -1.000000e+00 0.000000e+00
    outer loop
      vertex   -9.444000e+01 8.000000e+00 -1.260000e+01
      vertex   9.444000e+01 8.000000e+00 -1.410000e+01
      vertex   9.444000e+01 8.000000e+00 -1.260000e+01
    endloop
  endfacet
  facet normal 1.000000e+00 0.000000e+00 0.000000e+00
    outer loop
      vertex   1.914667e+01 7.450000e+01 -1.410000e+01
      vertex   1.914667e+01 8.550000e+01 -1.410000e+01
      vertex   1.914667e+01 7.450000e+01 -1.260000e+01
    endloop
  endfacet
  facet normal 1.000000e+00 -0.000000e+00 0.000000e+00
    outer loop
      vertex   1.914667e+01 7.450000e+01 -1.260000e+01
      vertex   1.914667e+01 8.550000e+01 -1.410000e+01
      vertex   1.914667e+01 8.550000e+01 -1.260000e+01
    endloop
  endfacet
  facet normal 0.000000e+00 1.000000e+00 -0.000000e+00
    outer loop
      vertex   -1.914667e+01 7.450000e+01 -1.410000e+01
      vertex   -2.914667e+01 7.450000e+01 -1.410000e+01
      vertex   -1.914667e+01 7.450000e+01 -1.260000e+01
    endloop
  endfacet
  facet normal 0.000000e+00 1.000000e+00 0.000000e+00
    outer loop
      vertex   -1.914667e+01 7.450000e+01 -1.260000e+01
      vertex   -2.914667e+01 7.450000e+01 -1.410000e+01
      vertex   -2.914667e+01 7.450000e+01 -1.260000e+01
    endloop
  endfacet
  facet normal -1.000000e+00 0.000000e+00 0.000000e+00
    outer loop
      vertex   -1.914667e+01 8.550000e+01 -1.410000e+01
      vertex   -1.914667e+01 7.450000e+01 -1.410000e+01
      vertex   -1.914667e+01 8.550000e+01 -1.260000e+01
    endloop
  endfacet
  facet normal -1.000000e+00 -0.000000e+00 0.000000e+00
    outer loop
      vertex   -1.914667e+01 8.550000e+01 -1.260000e+01
      vertex   -1.914667e+01 7.450000e+01 -1.410000e+01
      vertex   -1.914667e+01 7.450000e+01 -1.260000e+01
    endloop
  endfacet
  facet normal -1.000000e+00 0.000000e+00 -0.000000e+00
    outer loop
      vertex   -9.444000e+01 8.000000e+00 -1.260000e+01
      vertex   -9.444000e+01 7.550000e+01 -1.260000e+01
      vertex   -9.444000e+01 8.000000e+00 -1.410000e+01
    endloop
  endfacet
  facet normal -1.000000e+00 0.000000e+00 0.000000e+00
    outer loop
      vertex   -9.444000e+01 8.000000e+00 -1.410000e+01
      vertex   -9.444000e+01 7.550000e+01 -1.260000e+01
      vertex   -9.444000e+01 7.550000e+01 -1.410000e+01
    endloop
  endfacet
  facet normal 0.000000e+00 1.000000e+00 -0.000000e+00
    outer loop
      vertex   -2.914667e+01 8.550000e+01 -1.410000e+01
      vertex   -8.444000e+01 8.550000e+01 -1.410000e+01
      vertex   -2.914667e+01 8.550000e+01 -1.260000e+01
    endloop
  endfacet
  facet normal 0.000000e+00 1.000000e+00 0.000000e+00
    outer loop
      vertex   -2.914667e+01 8.550000e+01 -1.260000e+01
      vertex   -8.444000e+01 8.550000e+01 -1.410000e+01
      vertex   -8.444000e+01 8.550000e+01 -1.260000e+01
    endloop
  endfacet
  facet normal -0.000000e+00 1.000000e+00 0.000000e+00
    outer loop
      vertex   2.914667e+01 8.550000e+01 -1.260000e+01
      vertex   8.444000e+01 8.550000e+01 -1.260000e+01
      vertex   2.914667e+01 8.550000e+01 -1.410000e+01
    endloop
  endfacet
  facet normal 0.000000e+00 1.000000e+00 0.000000e+00
    outer loop
      vertex   2.914667e+01 8.550000e+01 -1.410000e+01
      vertex   8.444000e+01 8.550000e+01 -1.260000e+01
      vertex   8.444000e+01 8.550000e+01 -1.410000e+01
    endloop
  endfacet
  facet normal 0.000000e+00 0.000000e+00 -1.000000e+00
    outer loop
      vertex   -1.914667e+01 8.550000e+01 -1.410000e+01
      vertex   1.914667e+01 8.550000e+01 -1.410000e+01
      vertex   -1.914667e+01 7.450000e+01 -1.410000e+01
    endloop
  endfacet
  facet normal 0.000000e+00 0.000000e+00 -1.000000e+00
    outer loop
      vertex   -1.914667e+01 7.450000e+01 -1.410000e+01
      vertex   1.914667e+01 8.550000e+01 -1.410000e+01
      vertex   1.914667e+01 7.450000e+01 -1.410000e+01
    endloop
  endfacet
  facet normal 0.000000e+00 -0.000000e+00 -1.000000e+00
    outer loop
      vertex   -1.914667e+01 7.450000e+01 -1.410000e+01
      vertex   1.914667e+01 7.450000e+01 -1.410000e+01
      vertex   -9.444000e+01 8.000000e+00 -1.410000e+01
    endloop
  endfacet
  facet normal 0.000000e+00 0.000000e+00 -1.000000e+00
    outer loop
      vertex   -9.444000e+01 8.000000e+00 -1.410000e+01
      vertex   1.914667e+01 7.450000e+01 -1.410000e+01
      vertex   9.444000e+01 8.000000e+00 -1.410000e+01
    endloop
  endfacet
  facet normal 0.000000e+00 0.000000e+00 -1.000000e+00
    outer loop
      vertex   9.444000e+01 8.000000e+00 -1.410000e+01
      vertex   1.914667e+01 7.450000e+01 -1.410000e+01
      vertex   2.914667e+01 7.450000e+01 -1.410000e+01
    endloop
  endfacet
  facet normal 0.000000e+00 0.000000e+00 -1.000000e+00
    outer loop
      vertex   9.444000e+01 8.000000e+00 -1.410000e+01
      vertex   2.914667e+01 7.450000e+01 -1.410000e+01
      vertex   9.444000e+01 7.550000e+01 -1.410000e+01
    endloop
  endfacet
  facet normal -0.000000e+00 0.000000e+00 -1.000000e+00
    outer loop
      vertex   9.444000e+01 7.550000e+01 -1.410000e+01
      vertex   2.914667e+01 7.450000e+01 -1.410000e+01
      vertex   8.444000e+01 8.550000e+01 -1.410000e+01
    endloop
  endfacet
  facet normal -0.000000e+00 0.000000e+00 -1.000000e+00
    outer loop
      vertex   8.444000e+01 8.550000e+01 -1.410000e+01
      vertex   2.914667e+01 7.450000e+01 -1.410000e+01
      vertex   2.914667e+01 8.550000e+01 -1.410000e+01
    endloop
  endfacet
  facet normal -0.000000e+00 0.000000e+00 -1.000000e+00
    outer loop
      vertex   -1.914667e+01 7.450000e+01 -1.410000e+01
      vertex   -9.444000e+01 8.000000e+00 -1.410000e+01
      vertex   -2.914667e+01 7.450000e+01 -1.410000e+01
    endloop
  endfacet
  facet normal -0.000000e+00 0.000000e+00 -1.000000e+00
    outer loop
      vertex   -2.914667e+01 7.450000e+01 -1.410000e+01
      vertex   -9.444000e+01 8.000000e+00 -1.410000e+01
      vertex   -9.444000e+01 7.550000e+01 -1.410000e+01
    endloop
  endfacet
  facet normal 0.000000e+00 0.000000e+00 -1.000000e+00
    outer loop
      vertex   -2.914667e+01 7.450000e+01 -1.410000e+01
      vertex   -9.444000e+01 7.550000e+01 -1.410000e+01
      vertex   -8.444000e+01 8.550000e+01 -1.410000e+01
    endloop
  endfacet
  facet normal 0.000000e+00 0.000000e+00 -1.000000e+00
    outer loop
      vertex   -8.444000e+01 8.550000e+01 -1.410000e+01
      vertex   -2.914667e+01 8.550000e+01 -1.410000e+01
      vertex   -2.914667e+01 7.450000e+01 -1.410000e+01
    endloop
  endfacet
  facet normal 7.071068e-01 7.071068e-01 -0.000000e+00
    outer loop
      vertex   9.444000e+01 7.550000e+01 -1.410000e+01
      vertex   8.444000e+01 8.550000e+01 -1.410000e+01
      vertex   9.444000e+01 7.550000e+01 -1.260000e+01
    endloop
  endfacet
  facet normal 7.071068e-01 7.071068e-01 0.000000e+00
    outer loop
      vertex   9.444000e+01 7.550000e+01 -1.260000e+01
      vertex   8.444000e+01 8.550000e+01 -1.410000e+01
      vertex   8.444000e+01 8.550000e+01 -1.260000e+01
    endloop
  endfacet
  facet normal 0.000000e+00 1.000000e+00 -0.000000e+00
    outer loop
      vertex   1.914667e+01 8.550000e+01 -1.410000e+01
      vertex   -1.914667e+01 8.550000e+01 -1.410000e+01
      vertex   1.914667e+01 8.550000e+01 -1.260000e+01
    endloop
  endfacet
  facet normal 0.000000e+00 1.000000e+00 0.000000e+00
    outer loop
      vertex   1.914667e+01 8.550000e+01 -1.260000e+01
      vertex   -1.914667e+01 8.550000e+01 -1.410000e+01
      vertex   -1.914667e+01 8.550000e+01 -1.260000e+01
    endloop
  endfacet
  facet normal -7.071068e-01 7.071068e-01 0.000000e+00
    outer loop
      vertex   -8.444000e+01 8.550000e+01 -1.410000e+01
      vertex   -9.444000e+01 7.550000e+01 -1.410000e+01
      vertex   -8.444000e+01 8.550000e+01 -1.260000e+01
    endloop
  endfacet
  facet normal -7.071068e-01 7.071068e-01 0.000000e+00
    outer loop
      vertex   -8.444000e+01 8.550000e+01 -1.260000e+01
      vertex   -9.444000e+01 7.550000e+01 -1.410000e+01
      vertex   -9.444000e+01 7.550000e+01 -1.260000e+01
    endloop
  endfacet
  facet normal 1.000000e+00 0.000000e+00 0.000000e+00
    outer loop
      vertex   9.444000e+01 8.000000e+00 -1.410000e+01
      vertex   9.444000e+01 7.550000e+01 -1.410000e+01
      vertex   9.444000e+01 8.000000e+00 -1.260000e+01
    endloop
  endfacet
  facet normal 1.000000e+00 -0.000000e+00 0.000000e+00
    outer loop
      vertex   9.444000e+01 8.000000e+00 -1.260000e+01
      vertex   9.444000e+01 7.550000e+01 -1.410000e+01
      vertex   9.444000e+01 7.550000e+01 -1.260000e+01
    endloop
  endfacet
  facet normal 0.000000e+00 0.000000e+00 1.000000e+00
    outer loop
      vertex   1.914667e+01 8.550000e+01 -1.260000e+01
      vertex   -1.914667e+01 8.550000e+01 -1.260000e+01
      vertex   1.914667e+01 7.450000e+01 -1.260000e+01
    endloop
  endfacet
  facet normal 0.000000e+00 0.000000e+00 1.000000e+00
    outer loop
      vertex   1.914667e+01 7.450000e+01 -1.260000e+01
      vertex   -1.914667e+01 8.550000e+01 -1.260000e+01
      vertex   -1.914667e+01 7.450000e+01 -1.260000e+01
    endloop
  endfacet
  facet normal 0.000000e+00 0.000000e+00 1.000000e+00
    outer loop
      vertex   1.914667e+01 7.450000e+01 -1.260000e+01
      vertex   -1.914667e+01 7.450000e+01 -1.260000e+01
      vertex   9.444000e+01 8.000000e+00 -1.260000e+01
    endloop
  endfacet
  facet normal 0.000000e+00 0.000000e+00 1.000000e+00
    outer loop
      vertex   9.444000e+01 8.000000e+00 -1.260000e+01
      vertex   -1.914667e+01 7.450000e+01 -1.260000e+01
      vertex   -9.444000e+01 8.000000e+00 -1.260000e+01
    endloop
  endfacet
  facet normal 0.000000e+00 0.000000e+00 1.000000e+00
    outer loop
      vertex   -9.444000e+01 8.000000e+00 -1.260000e+01
      vertex   -1.914667e+01 7.450000e+01 -1.260000e+01
      vertex   -2.914667e+01 7.450000e+01 -1.260000e+01
    endloop
  endfacet
  facet normal 0.000000e+00 0.000000e+00 1.000000e+00
    outer loop
      vertex   -9.444000e+01 8.000000e+00 -1.260000e+01
      vertex   -2.914667e+01 7.450000e+01 -1.260000e+01
      vertex   -9.444000e+01 7.550000e+01 -1.260000e+01
    endloop
  endfacet
  facet normal -0.000000e+00 0.000000e+00 1.000000e+00
    outer loop
      vertex   -9.444000e+01 7.550000e+01 -1.260000e+01
      vertex   -2.914667e+01 7.450000e+01 -1.260000e+01
      vertex   -8.444000e+01 8.550000e+01 -1.260000e+01
    endloop
  endfacet
  facet normal -0.000000e+00 0.000000e+00 1.000000e+00
    outer loop
      vertex   -8.444000e+01 8.550000e+01 -1.260000e+01
      vertex   -2.914667e+01 7.450000e+01 -1.260000e+01
      vertex   -2.914667e+01 8.550000e+01 -1.260000e+01
    endloop
  endfacet
  facet normal -0.000000e+00 0.000000e+00 1.000000e+00
    outer loop
      vertex   1.914667e+01 7.450000e+01 -1.260000e+01
      vertex   9.444000e+01 8.000000e+00 -1.260000e+01
      vertex   2.914667e+01 7.450000e+01 -1.260000e+01
    endloop
  endfacet
  facet normal -0.000000e+00 0.000000e+00 1.000000e+00
    outer loop
      vertex   2.914667e+01 7.450000e+01 -1.260000e+01
      vertex   9.444000e+01 8.000000e+00 -1.260000e+01
      vertex   9.444000e+01 7.550000e+01 -1.260000e+01
    endloop
  endfacet
  facet normal 0.000000e+00 0.000000e+00 1.000000e+00
    outer loop
      vertex   2.914667e+01 7.450000e+01 -1.260000e+01
      vertex   9.444000e+01 7.550000e+01 -1.260000e+01
      vertex   8.444000e+01 8.550000e+01 -1.260000e+01
    endloop
  endfacet
  facet normal 0.000000e+00 0.000000e+00 1.000000e+00
    outer loop
      vertex   8.444000e+01 8.550000e+01 -1.260000e+01
      vertex   2.914667e+01 8.550000e+01 -1.260000e+01
      vertex   2.914667e+01 7.450000e+01 -1.260000e+01
    endloop
  endfacet
endsolid
